<?xml version="1.0" encoding="iso-8859-1"?>
<!-- http://www.openclipart.org/people/johnny_automatic/johnny_automatic_grinning_globe.svg -->
<!DOCTYPE svg PUBLIC "-//W3C//DTD SVG 1.1//EN" "http://www.w3.org/Graphics/SVG/1.1/DTD/svg11.dtd">
<svg version="1.1" id="grinning_world_xA0_Image_1_"
	 xmlns="http://www.w3.org/2000/svg" xmlns:xlink="http://www.w3.org/1999/xlink" x="0px" y="0px" width="215.526px"
	 height="213.257px" viewBox="0 0 215.526 213.257" style="enable-background:new 0 0 215.526 213.257;" xml:space="preserve">
<g>
	<path fill="green" style="fill-rule:evenodd;clip-rule:evenodd;" d="M89.492,1.772c10.07-1.395,29.998-2.753,41.973-0.792
		c3.63,0.594,8.393,3.109,12.671,4.751c9.746,3.742,16.89,7.858,25.343,13.463c13.277,8.805,19.456,14.89,29.302,30.886
		c9.708,15.771,17.813,35.444,16.631,61.772c-0.257,5.719-1.416,11.146-2.376,15.839c-2.23,10.908-4.022,18.139-8.711,26.927
		c-10.021,18.78-25.45,34.583-43.558,45.141c-23.771,13.86-57.556,18.427-89.49,7.128c-22.358-7.911-39.093-18.443-51.477-37.222
		c-4.956-7.515-9.892-16.196-12.671-23.759c-1.071-2.915-1.374-6.72-2.375-10.295c-1.335-4.763-3.394-8.025-3.96-12.672
		C-3,91.808,7.334,61.722,20.592,43.746c5.842-7.921,10.295-12.039,17.423-18.215C50.96,14.313,66.309,4.983,89.492,1.772z
		 M22.968,54.041c5.185,2.734,11.44,4.399,17.423,6.335c5.923-17.307,18.929-27.531,30.886-38.805
		c-1.888-1.016-4.292-1.517-4.751-3.96c2.968,2.093,8.426,3.56,11.879,0.792c-0.249,1.071-1.127,1.513-0.792,3.168
		c3.181,0.779,6.949,0.97,11.087,0.792c2.27-3.538,1.312-10.304,5.543-11.879c-1.833,3.71-2.588,8.499-3.959,12.671
		c6.494,2.138,13.34-1.156,19.798-1.583c-0.108-3.35-5.133-5.918-3.959-7.92c3.898,0.326,3.725,4.722,6.335,6.336
		c8.396-1.9,16.71-3.881,20.591-10.295C85.131-3.019,38.997,22.395,22.968,54.041z M156.808,19.987
		c-3.878-2.184-18.664-11.57-22.175-8.711c-5.756,4.687-11.011,9.438-19.799,10.295c6.235,11.979,9.481,26.948,13.463,41.181
		c12.846-2.994,23.924-7.755,31.679-15.839c-3.936-11.378-18.154-16.689-21.383-26.134c9.799,6.304,16.302,15.903,24.55,23.758
		c3.979-3.676,8.513-6.799,10.296-12.671C169.49,27.335,163.567,23.794,156.808,19.987z M71.277,24.739
		c-10.27,8.207-25.618,23.248-28.51,36.43c11.735,2.812,26.565,6.659,38.806,6.335c0.328-13.015,2.43-30.009,6.335-41.973
		C82.04,23.366,74.223,22.385,71.277,24.739z M90.284,25.531c-4.211,12.999-6.355,31.086-5.543,42.765
		c15.243,0.46,28.733-0.832,40.39-3.959c-0.922-7.552-2.563-15.167-4.752-22.175c-2.087-6.683-3.802-14.641-8.712-19.007
		C105.28,24.689,98.677,26.004,90.284,25.531z M147.304,198.175c3.854-8.554,11.129-13.686,14.255-22.966
		c-11.241,3.541-22.286,7.279-36.429,7.919c-1.469,8.563-4.479,15.584-7.92,22.175C126.888,205.687,138.422,201.213,147.304,198.175
		z M57.022,189.464c1.066,6.272,6.5,5.727,11.879,7.919c2.225,0.906,3.58,2.457,5.544,3.168c11.772,4.26,25.072,5.635,40.389,5.544
		c3.943-5.881,7.624-16.059,7.92-22.967c-12.764,2.866-27.174,0.992-39.598-0.792c-1.344,4.865,3.118,10.266,0,11.879
		c-3.435-3.167-0.756-10.012-2.376-13.463c-11.676-3.635-24.257-6.365-34.846-11.087c0.142,8.041,5.343,11.023,5.543,19.007
		C52.499,189.763,54.918,189.456,57.022,189.464z M165.519,173.625c-1.373,1.238-2.047,3.737-3.168,5.543
		c-3.743,6.033-8.815,10.149-11.879,15.839c0.175,0.617,0.663,0.921,1.584,0.792c26.307-14.026,50.663-39.938,54.645-77.61
		c3.865-36.577-10.603-65.198-30.886-83.947c-4.483,3.7-7.038,9.329-11.088,13.463c3.529,8.915,13.15,15.837,12.671,26.134
		c-6.07-7.129-8.155-18.243-15.839-23.759c-9.344,6.495-19.728,11.95-32.47,15.047c0.47,5.338,3.107,8.507,2.376,15.047
		c6.876-4.258,15.729-12.243,26.135-11.087c4.917,0.546,9.794,4.29,13.463,7.127c3.401,2.631,7.129,6.045,6.335,10.295
		c-7.543-0.002-10.654-9.014-19.798-9.503c-4.895-0.262-12.536,3.879-15.839,5.544c-5.765,2.905-6.816,4.375-9.504,8.711
		c-0.213,2.361,2.217,4.822-0.792,5.543c-0.098-3.333-3.213-3.651-3.96-6.335c3.726-7.487,1.933-17.24-0.792-24.55
		c-10.829,4.745-27.151,3.998-42.765,3.959c0.584,3.752-0.891,5.445-0.792,8.711c5.057,3.654,12.674,4.749,15.839,10.295
		c0.765,7.155,6.298,9.541,11.087,12.671c0.822,5.31-1.29,7.686-6.335,7.128c-0.445-3.514-0.229-7.691-3.959-7.919
		c-3.09,7.205-18.989,1.602-23.758,7.127c-7.782-3.208-16.538-0.616-21.383-6.336c4.792-6.524,13.946-12.136,23.758-11.087
		c1.826,0.242,0.88-2.288,2.376-2.376c0.579,6.549,7.892,6.363,11.879,9.503c-1.279-6.182-8.182-12.252-11.879-11.087
		c-0.075-1.245,0.106-2.746-1.584-2.376c-11.735-2.75-26.615,2.912-34.054,9.503c-2.361-0.279-4.822-0.458-5.543-2.375
		c6.488-12.287,23.322-18.938,41.973-14.255c0.479-1.896,1.139-3.613,0.792-6.335c-13.746-2.093-27.676-4.002-40.39-7.127
		c-3.963,11.11-8.518,25.764-6.335,40.389c-0.456,1.656-1.963,2.26-1.584,4.752c7.601,5.07,17.659,7.684,30.886,7.127
		c-1.103-8.136-13.657-4.822-19.007-8.711c2.16-3.833,8.086-2.165,11.087-1.584c7.128,1.378,12.705,7.782,18.215,7.919
		c8.747,0.22,15.003-10.645,24.55-4.751c-2.096,1.335-5.031,1.832-7.127,3.167c0.283,3.677,2.698,5.222,5.543,6.336
		c-0.316-2.956,0.633-4.647,3.168-4.752c6.251,9.184,20.767,5.249,30.886,2.376c1.007-4.322-4.127-8.642,0-11.087
		c3.09,2.149,6.002,3.209,8.712,0c3.347,0.876,5.027,3.42,8.711,3.96c5.308-3.668,15.931-2.021,19.799-7.128
		c-9.16-4.054-23.123,4.574-29.302-1.583c5.455-6.102,16.848-6.044,23.758-4.752c-4.272-1.799-7.752-4.391-11.879-6.335
		c-2.013,2.388-5.249,2.076-7.92,3.959c-3.301,2.329-4.864,8.053-8.711,7.128c2.699-5.539,11.088-13.593,17.423-13.463
		c3.024,0.062,8.433,3.534,11.879,5.543c4.071,2.374,7.231,6.461,11.88,6.336c0.777-1.07,2.112-1.583,3.167-2.376
		c1.114-3.561-2.397-7.04,0.792-7.919c1.802,0.575-0.729,5.481,2.376,4.751c5.509-3.472,10.259-11.909,15.839-12.671
		c-2.916,10.148-25.979,15.284-12.671,25.342c-1.184,1.192-4.515,0.237-3.96,3.168c1.53,7.358-0.198,16.832-1.584,23.758
		c4.818,0.354,7.144-1.475,11.088,0c2.181-0.873,4.154-4.771,6.335-3.168c-0.22,3.212-3.436,3.428-4.751,5.544
		c-0.429,2.805,2.804,1.947,2.375,4.752c-5.022,3.16-4.772,11.593-10.295,14.255c1.025-7.435,2.59-13.86-4.752-15.839
		c-3.432,11.351-8.422,21.144-12.671,31.678c6.68-0.72,13.482-5.515,18.215-5.544C180.565,170.676,171.238,168.465,165.519,173.625z
		 M20.592,55.625c-4.859,12.3-10.817,23.501-11.879,39.597c6.328,5.551,13.398,10.36,22.967,12.671
		c1.039-13.976,2.718-33.543,7.919-45.933C32.871,60.241,27.897,56.768,20.592,55.625z M79.988,94.43
		c-5.076-5.915-18.225,1.875-20.591,6.336c7.12-0.211,10.632-4.78,15.839-4.752c5.258,0.028,7.888,5.847,15.047,4.752
		C88.351,97.252,84.293,93.104,79.988,94.43z M14.257,142.739c5.178,14.286,12.222,22.339,20.59,31.679
		c4.427,4.94,8.854,10.637,15.047,11.879c-1.726-6.722-5.045-11.85-7.128-18.215c-2.94-1.283-6.738-1.709-7.919-4.752
		c2.814,0.09,2.879,2.929,6.336,2.376c-2.856-9.072-6.782-19.126-7.92-30.886c-0.771-7.976,0.543-16.507-1.583-24.551
		c-9.877-1.738-15.967-7.264-22.967-11.879c-0.528,0-1.056,0-1.584,0C4.742,113.496,9.754,130.319,14.257,142.739z M177.397,101.558
		c4.061,1.03,3.686-3.876,0-3.167C177.397,99.446,177.397,100.502,177.397,101.558z M148.096,112.645
		c-2.277-2.21-5.51-3.465-10.295-3.168c0,1.584,0,3.168,0,4.752c3.44,0.978,5.692-4.166,6.335,0.792
		c-3.108,2.171-8.246,2.313-10.295,5.544c0.486,1.098,3.049,0.119,3.168,1.584c-1.728-0.145-2.52,0.647-2.376,2.375
		c0.827,7.281-1.361,15.375-0.792,19.799c10.265-0.771,18.856-0.931,26.926-2.376c2.313-0.414,5.951-0.961,7.128-3.167
		c-8.084-0.753-22.774-1.451-26.134-7.128c-0.672-1.135-3.745-6.335,0.791-7.92c3.524,12.131,23.798,13.351,36.43,9.504
		c-0.703-10.938,2.733-19.864,0.792-27.718C163.963,102.642,162.315,113.929,148.096,112.645z M34.847,123.732
		c3.074,4.055,6.995,7.261,10.295,11.088c10.947,2.524,20.76,3.754,30.886,0c3.087-2.721,5.712-5.903,10.295-7.128
		c-2.1,6.348-9.029,7.865-13.463,11.88c-5.421,1.178-12.296,0.902-18.215,1.583c3.328,5.713,18.583,3.504,23.758,4.752
		c1.969-1.198-0.486-6.821,1.584-7.919c1.926,2.694-1.414,6.014,0.792,8.711c17.995,0.309,33.826-1.547,50.685-2.376
		c0.904-5.805,1.571-15.702,0.792-20.591c-4.531-0.452-8.205,3.644-13.463,3.96c-2.448,0.147-5.169-1.299-7.92-1.584
		c-9.523-0.986-20.872-0.205-30.094-1.584c-8-1.195-15.568-3.581-21.383-5.543c-2.42-0.572-2.886,0.81-4.751,0.792
		c-4.839-4.137-13.047-4.904-19.799-7.128C34.847,116.34,34.847,120.037,34.847,123.732z M89.492,117.397
		c-6.39-0.111-17.498-0.624-25.342,0c0.531,3.277,4.948,3.288,7.919,3.96c9.621,2.173,22.55,2.881,31.678,2.375
		C98.121,122.495,92.662,121.09,89.492,117.397z M43.559,166.498c11.195,4.907,23.83,8.376,36.43,11.879
		c2.466-4.83-1.972-8.931-0.792-15.047c-4.1-2.235-10.35-2.32-12.671-6.335c4.66-3.17,8.893,3.871,13.463,0.791
		c9.356,7.167,33.644,4.111,48.309,3.168c1.496-0.088,0.55-2.618,2.376-2.376c1.932,3.431,6.678-0.792,9.504-1.583
		c2.413-0.676,5.403-0.195,7.919-0.792c7.673-1.822,14.211-7.01,19.799-6.336c-10.183,7.769-24.304,11.598-38.014,15.839
		c-0.904,4.784-3.438,11.676-3.168,15.047c13.912-0.606,23.833-5.205,35.638-7.919c6.55-8.498,10.634-19.461,14.256-30.887
		c-9.141-1.283-17.492,5.514-26.927,7.92c-6.33,1.614-13.88,0.233-19.007,4.752c-0.333-2.936-3.781-1.592-4.752-1.584
		c-7.831,0.059-16.547,2.637-25.342,2.376c-6.471-0.192-12.322-1.095-19.007-1.584c-1.826-0.242-0.88,2.288-2.376,2.376
		c1.251-3.1-2.056-1.64-2.376-3.168c-8.428-0.812-14.434-4.045-22.174-5.544c-0.552,2.088-3.605,1.674-3.959,3.96
		c1.585,2.902,5.576,3.398,5.543,7.919c-9.63-0.947-16.07-14.098-11.087-22.174c-4.777-0.768-7.01-4.078-10.295-6.336
		C36.148,144.342,39.688,155.584,43.559,166.498z M82.364,179.96c12.343,2.164,31.335,3.998,41.974,0.792
		c0.536-5.271,2.949-8.665,3.167-14.255c-13.537,2.751-32.676,2.062-46.725-2.376C80.854,169.856,82.756,173.761,82.364,179.96z"/>
	<path style="fill-rule:evenodd;clip-rule:evenodd;" d="M144.136,119.773c0.372,2.747-4.297,0.454-4.751,2.376
		C137.205,120.676,142.793,120.34,144.136,119.773z"/>
</g>
</svg>
